# xmcd
#
# Track frame offsets: 
#        150
#        17321
#        34700
#        51142
#        64177
#        86863
#        98246
#        108451
#        120483
#        139537
#
# Disc length: 2074 seconds
#
# Revision: 1
# Processed by: cddbd v1.5.2PL0 Copyright (c) Steve Scherf et al.
# Submitted via: ExactAudioCopyFreeDBPlugin 1.0
#
DISCID=7b08180a
DTITLE=Daniel Romano - Come Cry With Me
DYEAR=2013
DGENRE=Country
TTITLE0=Middle Child
TTITLE1=Two Pillow Sleeper
TTITLE2=Just Between You And Me
TTITLE3=I'm Not Crying Over You
TTITLE4=He Lets Her Memory Go (Wild)
TTITLE5=Chicken Bill
TTITLE6=When I Was Abroad
TTITLE7=Where No One Else Will Find It
TTITLE8=Just Before The Moment
TTITLE9=A New Love (Can Be Found)
EXTD=
EXTT0=
EXTT1=
EXTT2=
EXTT3=
EXTT4=
EXTT5=
EXTT6=
EXTT7=
EXTT8=
EXTT9=
PLAYORDER=
